<?xml version="1.0" encoding="UTF-8"?>
<svg id="Layer_2" data-name="Layer 2" xmlns="http://www.w3.org/2000/svg" viewBox="0 0 270.7 264.4">
  <defs>
    <style>
      .cls-1 {
        fill: #00ff7f;
      }
    </style>
  </defs>
  <g id="Layer_1-2" data-name="Layer 1">
    <g id="_6891f5" data-name="6891f5">
      <g>
        <path class="cls-1" d="M0,221.74V42.71C0,18.46,25.92,0,47.87,0h175.27c23.73,0,47.56,18.88,47.56,44.08v176.31c0,24.85-23.46,44.01-47.11,44.01H47.76c-24.94,0-44.29-18.73-47.76-42.66ZM66.94,158.23h42s9.82,28.25,9.82,28.25l26.58-.26-42.17-118.29-31.08.03c-.36,3.79-.65,6.54-1.31,10.02l-37.7,108.21,22.63.31c.42,0,2.28-.58,2.44-1.08l8.81-27.19ZM175.97,147.92l35.89.04c6.78,0,13.03.59,19.83-.69,1.94-13.18,1.41-25.61-5.9-36.93-10.13-15.69-32.16-18.4-48.29-12.37-9.08,3.39-16.01,9.99-20.61,18.53-7.72,14.34-8.53,31.53-2.58,46.72,10.8,27.56,43.38,29.35,67.69,21.64,1.61-.69,2.86-1.61,2.85-3.28l-.09-18.14c-8.5,2.8-16.72,4.36-25.38,4-11.84-.5-21.99-6.33-23.41-19.51Z"/>
        <polygon class="cls-1" points="102.19 135.7 73.47 135.76 87.64 88.97 102.19 135.7"/>
        <path class="cls-1" d="M204.2,131.27h-28.12c.92-9.52,6.87-16.65,17.27-16.68,8.87-.02,15.9,6.91,15.39,15.82-1.31.47-2.94.86-4.54.85Z"/>
      </g>
    </g>
  </g>
</svg>