<?xml version="1.0" encoding="UTF-8"?>
<svg id="Layer_2" data-name="Layer 2" xmlns="http://www.w3.org/2000/svg" viewBox="0 0 270.7 264.4">
  <defs>
    <style>
      .cls-1 {
        fill: #00ff7f;
      }
    </style>
  </defs>
  <g id="Layer_1-2" data-name="Layer 1">
    <g>
      <path class="cls-1" d="M116.71,118.77c-7.63-.01-13.66,6.08-13.59,13.56.06,7.36,6.05,13.33,13.59,13.32l13.26-.03v-26.83s-13.27-.02-13.27-.02Z"/>
      <path class="cls-1" d="M116.45,156.41c-7.58.02-13.47,6.28-13.33,13.68.14,7.36,6.25,13.28,13.67,13.15,7.24-.13,13.2-6.02,13.18-13.5l-.03-13.36-13.5.03Z"/>
      <path class="cls-1" d="M116.23,81.2c-7.47.02-13.23,6.35-13.11,13.61.11,7.2,5.93,13.21,13.34,13.21h13.52s0-26.84,0-26.84l-13.74.03Z"/>
      <path class="cls-1" d="M154.15,118.78c-7.41,0-13.42,6.01-13.42,13.42s6.01,13.42,13.42,13.42,13.42-6.01,13.42-13.42-6.01-13.42-13.42-13.42Z"/>
      <path class="cls-1" d="M167.57,94.56c0-7.24-5.86-13.38-13.34-13.38h-13.52s0,26.84,0,26.84l13.17.02c7.71.01,13.69-6.02,13.68-13.48Z"/>
      <path class="cls-1" d="M223.14,0H47.87C25.92,0,0,18.46,0,42.71v179.04c3.47,23.93,22.82,42.65,47.76,42.65h175.82c23.65,0,47.11-19.16,47.11-44.01V44.08C270.7,18.89,246.87,0,223.14,0ZM173.66,146.49c-7.61,10.37-21.95,13.03-32.92,5.85l-.03,17.61c-.02,11.23-7.86,20.78-18.37,23.34-11.1,2.71-22.38-2.64-27.39-12.62-5.09-10.14-2.51-22.39,6.39-29.66-5.71-4.69-8.93-11.49-8.97-18.69-.04-7.3,3.19-14.19,8.97-18.93-8.17-6.69-11.08-17.57-7.4-27.36,3.49-9.3,12.54-15.65,22.81-15.63l38.21.08c10.06.02,18.72,6.91,21.95,15.94,3.48,9.76.48,20.37-7.53,26.98,10.08,8.21,11.87,22.76,4.29,33.09Z"/>
    </g>
  </g>
</svg>