<?xml version="1.0" encoding="UTF-8"?>
<svg id="Layer_2" data-name="Layer 2" xmlns="http://www.w3.org/2000/svg" viewBox="0 0 270.7 264.35">
  <defs>
    <style>
      .cls-1 {
        fill: #00ff7f;
      }
    </style>
  </defs>
  <g id="Layer_1-2" data-name="Layer 1">
    <g id="jpV8Iq">
      <g>
        <path class="cls-1" d="M0,221.69V42.66C0,18.71,25.55.01,47.35.01h176.31c23.55-.01,47.04,19.16,47.04,44.01v176.32c0,24.86-23.45,44.01-47.12,44.01H47.77c-24.96,0-44.31-18.71-47.77-42.66ZM206.35,72.8c0-7.89-6.39-14.28-14.28-14.28s-14.28,6.39-14.28,14.28,6.39,14.28,14.28,14.28,14.28-6.39,14.28-14.28ZM89.47,158.59l41.96.07,9.75,28.11,26.6-.19-42.08-118.86h-31.22c-.24,4.29-.41,6.69-1.37,10.62-11.71,33.72-26.07,75.06-36.65,105.51-.61,1.75-.19,2.63.1,2.73.19.07.93.19,1.34.19l22.29-.04,9.28-28.14ZM204.52,96.49h-25.31v90.38h25.31v-90.38Z"/>
        <polygon class="cls-1" points="124.62 135.6 95.99 135.69 110.07 88.48 124.62 135.6"/>
      </g>
    </g>
  </g>
</svg>