<?xml version="1.0" encoding="UTF-8"?>
<svg id="Layer_2" data-name="Layer 2" xmlns="http://www.w3.org/2000/svg" viewBox="0 0 270.7 264.4">
  <defs>
    <style>
      .cls-1 {
        fill: #00ff7f;
      }
    </style>
  </defs>
  <g id="Layer_1-2" data-name="Layer 1">
    <g>
      <path class="cls-1" d="M147.17,88.08c14.61,16.57,23.81,36.77,29.91,57.93.64.44,1.26-.02,1.92-.05l2.88-.13,2.31.12c2.39.12,4.52,1.01,6.81,1.77-4.76-14.45-16.18-33.09-26.35-44.14l-2.63-2.86c-5.19-5.63-10.62-10.57-17.02-15.19.51,1.09,1.39,1.66,2.17,2.55Z"/>
      <path class="cls-1" d="M202.94,161.12c-1.34-.27-2.54.05-3.83.13l-3.18.2-3.83.23-3.18.21-3.83.24-3.18.21-3.82.24-3.61.23-3.18.21-3.83.24-3.18.21-3.83.24-3.18.21-3.83.24-3.18.21-3.83.24-3.18.21-3.83.24-3.18.21-3.83.24-3.18.21-3.83.24-3.18.21-3.83.24-3.18.21-3.83.24-3.18.21-3.94.24-3.29.21-3.6.24-3.62.23-3.18.21-3.83.24-3.18.22c-1.41.1-2.81-.11-4.11.42l2.69,5.13c4.3-2.21,7.1.89,10.16,3.61l1.81,1.61c3.01,2.69,6.69,4.73,10.8,4.75,3.97.02,8.26-5.79,13.07-8.13,3.61-1.75,7.45-1.67,10.99.15,3.38,1.74,5.88,4.53,9.14,6.7,2.69,1.79,6.22,1.81,8.87,0,3.26-2.22,6.15-5.26,9.41-6.85,5.54-2.7,10.48-.86,14.9,2.79.32.26.74.75,1.28.48l7.54-3.8c8.09-4.07,15.71-8.85,22.76-14.44Z"/>
      <path class="cls-1" d="M160.48,148.66c-3.28-18.33-15.15-39.89-27.67-53.23l-2.88-3.06c-2.03-2.17-4.13-4.25-6.3-6.29l-3.04-2.86-7.05-5.86c-6.63-5.5-13.81-9.98-21.59-13.91.44,1.35,1.27,2.27,1.79,3.46l3.31,7.55c4.2,9.58,7,22.37,7.61,32.83l-.1,7.41c-.17,12.65-4.35,24.59-11.18,35.63,9.56-4.48,19.18-7.08,29.38-7.72,13.25-.72,25.25,1.48,37.71,6.04Z"/>
      <path class="cls-1" d="M223.14,0H47.87C25.92,0,0,18.46,0,42.71v179.04c3.47,23.93,22.82,42.65,47.76,42.65h175.82c23.66,0,47.11-19.16,47.11-44.01V44.08C270.7,18.89,246.87,0,223.14,0ZM127.12,74.3c.33-.82,1.03-1.84,2.13-1.56,3.27.84,6.16,2.21,9.15,3.75,6.27,3.24,11.65,7.36,16.96,11.94l2.09,1.8c2.86,2.47,5.42,5.21,7.96,8.01l2.52,2.76c11.99,13.15,23.26,32.5,28.41,49.69.27.88-.09,1.63-.62,2.14-.55.54-1.33.75-2.25.39-7.32-2.93-9.88-4.2-17.73-2.39-.97.22-1.91-.85-2.17-1.77-4.32-15.76-10.39-30.67-19.19-44.49-5.3-8.33-10.77-14.66-17.98-21.33-2.65-2.45-5.47-4.44-8.3-6.6-.81-.63-1.34-1.45-.99-2.33ZM100.29,105.76c-1.12-16.31-6.61-31.08-14.7-45.14-.53-.91-.95-1.52-.53-2.46.29-.66,1.17-1.86,2.16-1.45,17.31,7.08,34.8,20.71,47.37,34.44,15.41,16.83,27.04,37.63,30.65,60.38.17,1.04-.33,1.7-.96,2.13-.82.57-1.4.35-2.31.02-2.79-1.03-5.46-2.06-8.34-2.94-6.66-2.04-13.3-3.44-20.25-3.9l-2.22-.15c-2.11-.14-4.13-.14-6.14-.01l-2.31.15c-12.88.84-24.23,4.89-35.19,11.53-.95.58-2.12.17-2.73-.54-.77-.9-.55-1.9.22-2.88,9.06-11.55,14.28-24.61,15.29-39.34v-9.83ZM221.5,186.46c-.14,1.12-1.04,2-2.29,1.97-5.51-.12-8.68-3.63-12.66-6.81-8.32-6.65-12.41.65-18.57,4.67-4.32,2.82-9.6,2.85-13.9,0-2.15-1.42-3.93-3.05-5.94-4.68-8.29-6.66-12.45.67-18.57,4.67-4.38,2.86-9.72,2.84-14.04-.08-2.08-1.41-3.83-3-5.8-4.58-8.4-6.77-12.68.97-18.59,4.67-2.24,1.41-4.9,2.38-7.6,2.06-4.66-.56-8.79-2.72-12.22-5.81l-2.62-2.36c-.92-.83-1.85-1.88-3.03-2.32-1.31-.49-2.44.37-3.5.87-.75.36-1.44.59-2.16,1.04-3.56,2.25-7.42,5.88-10.35,7.49-1.57.86-4.19,1.97-5.46.33-.44-.58-.68-1.49-.26-2.17.53-.85,1.42-1.14,2.36-1.26,4.37-2.05,7.95-5.95,12.1-8.28l-2.84-5.38c-.56-1.07-1.14-2.07-1.58-3.22-.09-1.44,1.18-2.6,2.65-2.39.14.02,5.39-.37,6.1-.41l3.62-.22,3.18-.21,3.83-.24,3.18-.21,3.83-.24,3.18-.21,3.82-.24,3.61-.23,3.18-.21,3.83-.24,3.18-.21,3.83-.24,3.18-.21,3.83-.24,3.18-.21,3.83-.24,3.18-.21,3.83-.24,3.18-.21,3.83-.24,3.18-.21,3.83-.24,3.18-.21,3.83-.24,3.18-.21,3.83-.24,3.18-.21,3.82-.24,3.61-.23,3.18-.21,3.83-.24,3.18-.21,3.83-.24,3.39-.24c.58-.04,5.85-.32,5.84-.32,1.54-.53,3.35.15,3.66,1.89.12.69-.47,1.31-.96,1.75-9.77,8.94-22.92,16.63-34.72,22.27,2.89,2.35,6.65,2.5,9.61.54,3.25-2.14,6-5.19,9.42-6.85,3.6-1.75,7.45-1.67,10.99.15,3.06,1.58,5.95,4.46,9.12,6.69,1.35.95,2.99,1.26,4.66,1.43,1.13.12,1.98,1.11,1.85,2.1Z"/>
    </g>
  </g>
</svg>