<?xml version="1.0" encoding="UTF-8"?>
<svg id="Layer_2" data-name="Layer 2" xmlns="http://www.w3.org/2000/svg" viewBox="0 0 270.7 264.35">
  <defs>
    <style>
      .cls-1 {
        fill: #00ff7f;
      }
    </style>
  </defs>
  <g id="Layer_1-2" data-name="Layer 1">
    <g>
      <polygon class="cls-1" points="156.54 148.51 204.24 101.55 156.27 101.29 156.54 148.51"/>
      <path class="cls-1" d="M223.66,0H47.35C25.56.01,0,18.71,0,42.66v179.03c3.46,23.95,22.8,42.65,47.77,42.65h175.81c23.67,0,47.11-19.15,47.11-44.01V44.02C270.7,19.17,247.21,0,223.66,0ZM130.33,170.85c0,4.04-3.2,7.79-5.95,9.12-3.77,1.82-9.05,2.12-12.32-1.05L32.19,101.55l29.05-.25,48.42,46.77.23-46.5c6.71-.25,13.29-.26,20.44-.16v69.44ZM238.3,162.66l-19.27.21-.15-46.39-46.92,46.06,47.03.29v18.26s-45.11.15-45.11.15c-18.62.06-36.54-13.06-36.64-32.57l-.25-47.32,19.28-.07.08-18.26,49.07.18c19.89.07,33.17,17.56,33.08,36.58l-.2,42.87Z"/>
    </g>
  </g>
</svg>