<?xml version="1.0" encoding="UTF-8"?>
<svg id="Capa_1" xmlns="http://www.w3.org/2000/svg" version="1.1" viewBox="0 0 1920 417.8">
  <!-- Generator: Adobe Illustrator 30.0.0, SVG Export Plug-In . SVG Version: 2.1.1 Build 123)  -->
  <defs>
    <style>
      .st0 {
        fill: #00ff7f;
      }

      .st1 {
        fill: #fafafa;
      }
    </style>
  </defs>
  <g>
    <path class="st1" d="M129.8,288.8l3.8-97.5-1.4-40.9c-.5-12.3,9.8-22.2,22.1-21.7,11.3.4,20.6,9.4,20.8,20.7l.6,26.9h2.7c7.5-31.5,30.7-46.2,57.6-45.2,30.5,1.2,45.3,22,46.7,55.3h2c7.1-37.5,27.3-52.7,56.5-51.5,36.1,1.4,50.2,24.2,48.6,64.3l-3.9,99.5c-.5,12.6-10.8,22.5-23.8,22-12.6-.5-22.5-11.2-22-23.8l3.3-85.9c.6-14.3-5.6-26.8-23.5-27.5-20.6-.8-35,10.9-35.6,27.8l-3.2,83.2c-.5,12.6-10.8,22.5-23.8,22-12.6-.5-22.5-11.2-22-23.8l3.3-85.9c.6-14.3-6.3-26.8-24.2-27.5-20.6-.8-35,10.9-35.6,28.2l-3.2,82.9c-.5,12.6-10.8,22.5-23.8,22-12.6-.5-22.5-11.2-22-23.8Z"/>
    <path class="st1" d="M403.7,245.6c-.5-54.1,28.6-92.2,87.4-92.8,59.1-.6,89,37,89.5,91,.5,54.1-28.6,93.2-87.7,93.8-58.7.6-88.7-38-89.2-92ZM537.1,243.9c-.3-30.2-16.4-43.3-45.2-43-29.2.3-45,13.7-44.7,43.9.3,31.2,16.4,45,45.2,44.7,29.2-.3,45-14.4,44.7-45.6Z"/>
    <path class="st1" d="M601.5,297.4l.4-99.2-2.5-39.2c-.9-12.3,9.1-22.5,21.3-22.5,11.3,0,20.9,8.7,21.5,20l1.8,32.9h3c6.5-40.8,28.1-52.6,43.7-52.6,15.3,0,22.5,12.7,22.4,26.3,0,15.6-10.1,32.1-30,32.1-16.3,0-35.5,7.1-35.6,27.4l-.3,75c0,12.6-10.4,22.9-23,22.8s-22.9-10.4-22.8-23Z"/>
    <path class="st1" d="M726.4,227.8c-.1-32.5,22.4-52.8,63.2-53,32.5,0,45.8,15.5,51.9,27.1h1s0-26.6,0-26.6c0-19.6-16.3-28.2-36.6-28.1-17.3,0-24.2,5.1-29.2,11-5,5.7-9.9,12.6-22.5,12.7-14.6,0-22.3-9.6-22.3-22.5-.1-33.5,42.3-48.9,78.2-49,47.1-.1,78.7,17.7,78.9,71.4l.2,62.1,3.1,24.2c1.7,13.6-8.9,25.6-22.5,25.6-11.6,0-20.9-8.6-22.6-20.2l-2.7-19.6h-1.7c-7.2,23.9-25.4,39.2-59.3,39.3-32.5.1-56.8-17.4-56.9-54.6ZM844.2,225.5c0-11-19.3-14.5-36.9-14.5-20.6,0-36.2,3.8-36.1,14.7,0,10.9,15.6,14.6,36.2,14.5,17.6,0,36.8-4.1,36.8-14.7Z"/>
    <path class="st1" d="M956,35c8,0,14.6,6.7,14.5,15.3l-.9,194.8c0,12.6-10.1,22.9-23,22.8-12.6,0-22.9-10.4-22.8-23l.7-159.3h-3c-13.3,0-24.5-11.4-24.4-25.7s10.4-25.2,23.7-25.1l35.2.2Z"/>
    <path class="st1" d="M1158.9,213.9c-.2,29.9-42.8,45.2-78.3,45-53.1-.3-89.4-32.8-89-91.5.4-57.7,36.8-92.7,88.9-92.3,57.4.4,85.4,33.4,85.1,74.9-.1,22.9-11.8,31.8-36.7,31.6l-90.6-.6c4.2,20.6,25.7,29.7,45.6,29.8,16.6.1,26.6-6.1,35.9-11.4,6.3-3.6,12-6.6,19.3-6.5,9.6,0,19.9,7.4,19.8,21ZM1038.2,149.7l82-1.1c0-14.6-14.4-30-39.6-30.1-21.2-.1-39.2,10-42.4,31.2Z"/>
    <path class="st1" d="M1240.4,90.3c7.6.1,14.5,6.9,14.3,15.2l-3.1,166.9c-.6,35.2-26,61.3-51.6,60.8-15.6-.3-23.3-13.4-23.1-25,.5-24.6,28.5-14.1,29.1-46.6l2.2-121.1h-3c-13.3-.3-24.3-11.8-24.1-26.1.3-14.3,10.7-25,24-24.8l35.2.6ZM1201.3,46.8c.3-15.9,10.8-27.3,29-27,18.2.3,28.3,12.1,28,28.1-.3,15.6-10.8,27-29,26.7-18.2-.3-28.3-12.1-28-27.7Z"/>
    <path class="st1" d="M1277.9,230c.4-32.5,23.3-52.5,64.1-51.9,32.5.4,45.6,16.2,51.4,27.9h1s.4-26.5.4-26.5c.3-19.6-15.9-28.4-36.1-28.7-17.3-.2-24.3,4.6-29.4,10.5-5.1,5.6-10.1,12.5-22.7,12.3-14.6-.2-22.1-9.9-21.9-22.9.5-33.5,43.1-48.2,79-47.7,47.1.7,78.4,19,77.7,72.8l-.9,62.1,2.7,24.3c1.5,13.6-9.3,25.4-22.9,25.2-11.6-.2-20.8-8.9-22.3-20.6l-2.4-19.6h-1.7c-7.6,23.8-26.1,38.8-59.9,38.3-32.5-.4-56.5-18.4-56-55.5ZM1395.7,229.6c.2-11-19-14.9-36.6-15.1-20.6-.3-36.2,3.2-36.4,14.1-.2,11,15.4,14.8,36,15.1,17.6.2,36.9-3.5,37-14.1Z"/>
  </g>
  <g>
    <path class="st0" d="M1684,222.3c4.1,4.8,9.3,8.5,14.4,12.3,25.3,18.7,56.4,35.6,80.2,55.4,4.7,3.9,16.1,13.6,9.7,19.9-4.8,4.6-17,3-23.4,2.5-35.2-2.4-74.7-6.7-109.6-12.1-10.1-1.6-12.3-6.3-20.9,2.2-13.2,13.2-28.5,34.4-40.3,49.5-9.8,12.5-21,31.5-31.3,42.4-4.8,5-8,5.1-11.3-1.4-2.6-28.6-4.5-57.4-7.5-86-1.4-13.2-2.5-26.7-5.3-39.6-2-1.7-24.9,7.5-29.1,8.8-6,1.9-12.2,3-18.1,4.8-18.4,5.6-40.4,14.3-59,17.6-7.6,1.3-15.4-.8-10.4-9.7,4.1-7.4,30.3-28.5,38.3-35.4,21.4-18.5,43.6-36,65.4-54l1.9-2.6c.1-2-6.8-10.2-8.6-12.5-21-26.6-45.8-52.6-64.8-80.6-3-4.4-12.2-15.4-3.9-18.6,5.4-2.1,15.5,3.2,20.9,5.6,23.5,10.3,45.4,24.2,68.2,35.8,9.9,5,26.6,14.3,36.5,17.5,1,.3,1.7.7,2.8.2,1.2-5.2,3-10.4,4.8-15.5,9.4-26,18.6-53.9,29.1-79.4,1.9-4.6,4.4-15.1,11.4-12.4,4.2,1.6,6.7,16.9,9.7,21l24.8,88c18.7-1.9,37-7.1,55.5-10.2,14.1-2.4,30.1-5,44.3-6,47.1-3.3,14.6,23-2.1,37.7-20.3,17.9-45.1,36.4-67.1,52.3-1.6,1.1-3.2,2.1-5.1,2.5ZM1769.9,139.3c-33.9,2.9-67.3,9.5-101.1,14-8.2,1.1-18.2,6.1-22.1-4.7-8.2-23-16.4-57.7-21.9-81.9-.7-3.2-.2-6.9-1.7-10.1-11.4,25.8-18.5,53.9-30.5,79.6-1.8,3.9-9,19.4-12.5,20.4-4.4,1.2-19.2-6.4-24.1-8.7-28.3-13.2-55.1-30.9-83.2-43.8-1.2-.5-2-1.7-3.5-.9l70.7,91.4.3,3.9-102.2,88.4c14.8-5.1,29.8-9.3,44.8-13.8,17-5.1,34.7-11.6,52.3-15,15.5-2.9,11.5,2.9,13.4,13.7.6,3.2,1.9,6.3,2.4,9.4,5.5,32.9,6.3,66.4,9.1,99.6,1.6,0,1.6-1.1,2.2-2,19.8-26,38.2-52.9,59.6-77.7,3.4-3.9,9.8-11,14.5-12.7,6.8-2.4,30.4,1,39,1.8,33.8,3.1,67.4,8.1,101,12.5l-12-10.2c-27.4-20.4-58.4-38.5-84.7-60.1-5.8-4.7-13.2-8.9-5.5-16.1,27.5-26,67.6-45.2,93.4-73.5.9-1,2.1-2.1,2.1-3.5Z"/>
    <path class="st0" d="M1653.1,220.4c1.3,10.9-12.7,23.6-21.9,27.1-14.4,5.4-27.7,5.2-41.5-1.4-5-2.4-27.5-15.7-18.9-22.6,5.1-4.2,10.9,4.9,15,7.9,16.2,11.9,31.7,12.2,48.8,1.3,2.9-1.8,16.2-13.5,18.4-12.3Z"/>
    <path class="st0" d="M1627.6,212.2c-2.8,4.8-12.5.6-8.5-5.3,4-5.9,11.2.7,8.5,5.3Z"/>
    <path class="st0" d="M1595.6,206.4c2.6,1.5,2,5.7-1.2,6.6-6.4,1.8-4.7-10,1.2-6.6Z"/>
  </g>
</svg>